<svg width="680" height="500" xmlns="http://www.w3.org/2000/svg" xml:space="preserve" version="1.1">
 <defs>
  <linearGradient y2="0.75199" x2="0.49709" y1="0.23703" x1="0.50784" id="SVGID_1_">
   <stop stop-color="#503027" offset="0"/>
   <stop stop-color="#3C231E" offset="1"/>
  </linearGradient>
 </defs>
 <g>
  <title>Layer 1</title>
  <g id="XMLID_32_">
   <g id="XMLID_33_">
    <g id="svg_1">
     <g id="XMLID_17_">
      <path fill="#EDF1FF" d="m631.3,75.7l0,113.3c0,9.8 -8,17.7 -17.7,17.7l-241.5,0c-9.8,0 -17.7,-7.8 -17.7,-17.7l0,-113.3c0,-9.8 8,-17.7 17.7,-17.7l241.6,0c9.6,0 17.6,8 17.6,17.7z" class="st0" id="XMLID_18_"/>
     </g>
    </g>
   </g>
   <g id="XMLID_34_">
    <g id="svg_2">
     <g id="XMLID_66_">
      <path fill="#6a1b9a" d="m631.3,75.7l0,9.8l-277.1,0l0,-9.8c0,-9.8 8,-17.7 17.7,-17.7l241.6,0c9.8,0 17.8,8 17.8,17.7z" class="st1" id="XMLID_71_"/>
      <g id="XMLID_67_">
       <circle fill="#6a1b9a" r="3.7" cy="73.1" cx="369.9" class="st1" id="XMLID_70_"/>
       <circle fill="#6a1b9a" r="3.7" cy="73.1" cx="384.8" class="st1" id="XMLID_69_"/>
       <circle fill="#6a1b9a" r="3.7" cy="73.1" cx="399.6" class="st1" id="XMLID_68_"/>
      </g>
     </g>
    </g>
   </g>
   <path fill="#FFFFFF" d="m449.5,153.5l-59.6,0c-0.8,0 -1.2,-0.6 -1.2,-1.2l0,-49c0,-0.8 0.6,-1.2 1.2,-1.2l59.6,0c0.8,0 1.2,0.6 1.2,1.2l0,49c0.2,0.7 -0.4,1.2 -1.2,1.2z" class="st2" id="XMLID_193_"/>
   <g id="XMLID_36_">
    <path fill="#FFFFFF" d="m592.9,177.6l-204.2,0c-2.2,0 -3.8,-1.7 -3.8,-3.8l0,0c0,-2.2 1.7,-3.8 3.8,-3.8l204.2,0c2.2,0 3.8,1.7 3.8,3.8l0,0c0.2,2.1 -1.6,3.8 -3.8,3.8z" class="st2" id="XMLID_192_"/>
   </g>
   <g id="XMLID_37_">
    <path fill="#FFFFFF" d="m592.9,148.1l-123.9,0c-2.2,0 -3.8,-1.7 -3.8,-3.8l0,0c0,-2.2 1.7,-3.8 3.8,-3.8l123.9,0c2.2,0 3.8,1.7 3.8,3.8l0,0c0.2,2.1 -1.6,3.8 -3.8,3.8z" class="st2" id="XMLID_190_"/>
   </g>
   <g id="XMLID_38_">
    <path fill="#FFFFFF" d="m545.7,120.4l-76.7,0c-2.2,0 -3.8,-1.7 -3.8,-3.8l0,0c0,-2.2 1.7,-3.8 3.8,-3.8l76.7,0c2.2,0 3.8,1.7 3.8,3.8l0,0c0.2,2.1 -1.6,3.8 -3.8,3.8z" class="st2" id="XMLID_188_"/>
   </g>
  </g>
  <path fill="#E8E8E8" d="m450.8,202.7c-100.8,-53.4 -148.3,-217.5 -303.8,-119.4c-155.6,98.1 -91.1,299.6 58,348.3c149.1,48.7 340.9,21.2 394.9,-69.3c92.1,-154.7 -81.5,-123.7 -149.1,-159.6z" class="st3" id="XMLID_1_"/>
  <ellipse id="svg_3" opacity="0.2" ry="7.7" rx="75.3" cy="475.2" cx="138.6" class="st4"/>
  <rect id="svg_4" fill="#9d41ad" height="21.3" width="266.4" class="st5" y="21.2" x="206.4"/>
  <rect id="svg_5" fill="#6a1b9a" height="5.9" width="266.4" class="st1" y="36.5" x="206.4"/>
  <rect id="svg_6" fill="#FFFFFF" height="227.7" width="230.3" class="st2" y="41.8" x="224.6"/>
  <rect id="svg_7" fill="#594D41" height="82.3" width="2.3" class="st6" y="64.1" x="247.1"/>
  <rect id="svg_8" fill="#594D41" height="2.7" width="100.4" class="st6" y="143.7" x="247.1"/>
  <rect id="svg_9" fill="#FF992B" height="10.9" width="9" class="st7" y="132.9" x="255.2"/>
  <rect id="svg_10" fill="#FF992B" height="15.4" width="7.7" class="st7" y="128.4" x="268.8"/>
  <rect id="svg_11" fill="#FF992B" height="28.9" width="9" class="st7" y="114.8" x="281.4"/>
  <rect id="svg_12" fill="#FF992B" height="47.9" width="9" class="st7" y="95.8" x="293.7"/>
  <rect id="svg_13" fill="#FF992B" height="58.8" width="10" class="st7" y="84.9" x="306.3"/>
  <rect id="svg_14" fill="#FF992B" height="66.5" width="9" class="st7" y="77.3" x="319.4"/>
  <rect id="svg_15" fill="#FF992B" height="74.6" width="8.1" class="st7" y="69.1" x="333.5"/>
  <rect id="svg_16" fill="#9d41ad" height="4.1" width="99" class="st5" y="150.1" x="248.4"/>
  <rect id="svg_17" fill="#9d41ad" height="79.6" width="4.1" class="st5" y="64.1" x="238.9"/>
  <rect id="svg_18" fill="#6a1b9a" height="10" width="42.5" class="st1" y="51" x="270.6"/>
  <rect id="svg_19" fill="#6a1b9a" height="10" width="42.5" class="st1" y="70.5" x="381.4"/>
  <rect id="svg_20" fill="#0C7CE6" height="8.1" width="30.8" class="st1" y="145.1" x="395.9"/>
  <rect id="svg_21" fill="#594D41" height="68.7" width="2.3" class="st6" y="163.6" x="248.4"/>
  <rect id="svg_22" fill="#594D41" height="1.8" width="98.1" class="st6" y="230.6" x="250.7"/>
  <g id="svg_23">
   <path id="svg_24" fill="#FF992B" d="m251.2,230.6c-0.2,0 -0.4,-0.1 -0.6,-0.3c-0.2,-0.3 -0.1,-0.7 0.2,-0.9l12.2,-8.5l7.1,-17.3l13.2,-4.4l13.3,6.7l11,-23.7l13.4,-2.2l19.7,-11.7c0.3,-0.2 0.7,-0.1 0.9,0.2c0.2,0.3 0.1,0.7 -0.2,0.9l-19.9,11.8l-12.9,2.2l-11.3,24.3l-14.1,-7.1l-12.1,4l-7,17.1l-12.5,8.7c-0.2,0.2 -0.3,0.2 -0.4,0.2z" class="st7"/>
  </g>
  <g id="svg_25">
   <path id="svg_26" fill="#FF5353" d="m251.2,212.1c-0.3,0 -0.6,-0.2 -0.7,-0.5c-0.1,-0.4 0.2,-0.7 0.5,-0.8l23,-4.5l8.8,-15.4l15.8,-3.3l5.4,-10.9l17.1,-3.4l19.8,-3c0.4,-0.1 0.7,0.2 0.8,0.6c0.1,0.4 -0.2,0.7 -0.6,0.8l-19.8,3l-16.4,3.2l-5.4,10.9l-15.9,3.3l-8.8,15.4l-23.6,4.6c0.1,0 0,0 0,0z" class="st8"/>
  </g>
  <g id="svg_27">
   <path id="svg_28" fill="#9D6251" d="m251.2,198.1c-0.3,0 -0.6,-0.3 -0.7,-0.6c0,-0.4 0.2,-0.7 0.6,-0.8l21.1,-2.5l12.1,-17.9l15.7,1.2l7.9,-9.3l31.5,-4c0.4,0 0.7,0.2 0.8,0.6c0,0.4 -0.2,0.7 -0.6,0.8l-30.9,3.9l-8,9.4l-15.6,-1.2l-12,17.7l-21.9,2.7c0,0 0,0 0,0z" class="st9"/>
  </g>
  <rect id="svg_29" fill="#9d41ad" height="7.7" width="20.8" class="st1" y="164.1" x="353.8"/>
  <rect id="svg_30" fill="#FF5353" height="7.7" width="20.8" class="st8" y="176.8" x="353.8"/>
  <rect id="svg_31" fill="#FF992B" height="7.7" width="20.8" class="st7" y="189.4" x="353.8"/>
  <rect id="svg_32" fill="#FF992B" height="4.1" width="98.1" class="st7" y="237.4" x="250.7"/>
  <rect id="svg_33" fill="#9d41ad" height="5" width="58.8" class="st5" y="94.4" x="373.3"/>
  <rect id="svg_34" fill="#9d41ad" height="4.5" width="83.2" class="st5" y="106.7" x="361"/>
  <rect id="svg_35" fill="#8ACAFF" height="5" width="63.3" class="st5" y="119.3" x="371"/>
  <rect id="svg_36" fill="#8ACAFF" height="5" width="43.4" class="st5" y="165.9" x="389.5"/>
  <rect id="svg_37" fill="#8ACAFF" height="4.5" width="61.5" class="st5" y="178.1" x="380.5"/>
  <rect id="svg_38" fill="#8ACAFF" height="5" width="47" class="st5" y="190.8" x="387.7"/>
  <rect id="svg_39" fill="#8ACAFF" height="5" width="47" class="st5" y="216.6" x="387.7"/>
  <rect id="svg_40" fill="#9d41ad" height="5" width="73.7" class="st5" y="228.3" x="361"/>
  <rect id="svg_41" fill="#9d41ad" height="21.3" width="266.4" class="st5" y="266.8" x="206.4"/>
  <rect id="svg_42" fill="#6a1b9a" height="5.9" width="266.4" class="st1" y="282.1" x="206.4"/>
  <g id="svg_43">
   <path id="svg_44" fill="#FAA284" d="m209,181.5l-3.2,-5.2c0,0 -3.8,-5.3 -2.3,-13.6l4.5,-2.1l4.8,-19.6c0,0 5.5,-3 0.9,15.8c0,0 10.5,2.8 10.8,7.6c0.3,4.8 -3.4,6.3 -3.4,6.3s-2.2,6.1 -5.8,8l-6.3,2.8z" class="st10"/>
   <path id="svg_45" fill="#F0F2F1" d="m216.7,187.1c1,-5.3 1.3,-8.1 1.3,-8.1c-8.5,-4.3 -14,-3 -14,-3c-0.8,2.9 -1.2,4.9 -2.2,8.6c3.9,0.5 7.3,1.1 14.9,2.5z" class="st11"/>
   <path id="svg_46" fill="#1B2320" d="m201.2,183.3c-4.5,16.9 -10.2,32.9 -10.2,32.9c-13.1,-18.9 -25.1,-33.5 -25.1,-33.5c-7.2,4 -7.4,27.1 -7.4,27.1s19.9,32.8 38.4,35c14.3,1.7 18.9,-39.5 20.7,-58.4c-7.7,-3.9 -12.6,-3.6 -16.4,-3.1z" class="st12"/>
   <g id="svg_47">
    <path id="svg_48" fill="#3F332B" d="m118.2,471.2l-25.7,0c0,0 -1.5,-7 3.9,-16l17.4,0.3c-0.1,0 4.9,7.1 4.4,15.7z" class="st13"/>
    <rect id="svg_49" fill="#261E18" height="4.1" width="25.8" class="st14" y="471.2" x="92.4"/>
    <ellipse id="svg_50" fill="#5E4F45" ry="3.2" rx="9.7" cy="463.8" cx="105.4" class="st15"/>
   </g>
   <g id="svg_51">
    <path id="svg_52" fill="#3F332B" d="m143.9,453.6c0,0 -2,10.3 -0.5,17.6l48.6,0c0,0 1.7,-10.6 -19.4,-10.6l-13.5,-9.2l-15.2,2.2z" class="st13"/>
    <path id="svg_53" fill="#261E18" d="m143.5,475.3l16.3,0l0.2,-2.9c0,0 6.6,2.7 15.8,2.7c4.5,0 16.1,0.1 16.1,0.1l0,-4l-48.4,0l0,4.1z" class="st14"/>
    <path id="svg_54" fill="#5E4F45" d="m173.9,460.5c0,0 0.7,7.5 17.5,7.1c-0.1,0.1 -2.4,-6.7 -17.5,-7.1z" class="st15"/>
    <path id="svg_55" fill="#352B25" d="m159.1,471.2c0,0 -0.5,-12.3 -15.9,-12.4c0,0 -0.8,8.3 0.4,12.4l15.5,0z" class="st16"/>
   </g>
   <path id="svg_56" fill="#25302C" d="m168,286.7l0.9,168.5c0,0 -13.2,6.6 -25.6,1.4l-4.8,-140.4l-3.7,-0.2l-18,140.5c0,0 -9.5,4.4 -23.5,-0.8l14.2,-169.1l60.5,0l0,0.1z" class="st17"/>
   <path id="svg_57" fill="#131917" d="m168.6,390.3l0.3,64.8c0,0 -13.2,6.6 -25.6,1.4l-2.9,-86.7c6.9,27.8 22,23.6 28.2,20.5z" class="st18"/>
   <path id="svg_58" fill="#131917" d="m99.7,380.1c9.3,25.3 21.6,9.1 26.9,0l-9.8,76.5c0,0 -9.5,4.3 -23.5,-0.9l6.4,-75.6z" class="st18"/>
   <path id="svg_59" fill="#131917" d="m107.6,286.7l59.9,0l0,23.3c-5,2.2 -14.7,5.7 -29.1,8.2l0,-2l-3.6,-0.2l-0.4,2.9c-8.4,1.3 -18.2,2.3 -29.5,2.5l2.7,-34.7z" class="st18"/>
   <path id="svg_60" fill="#D4D6D5" d="m116.8,180.1c9.1,-2 20.4,-3.2 32,-1.3c-0.1,7.6 -0.3,40.3 -7.7,66.3c-0.1,-0.1 -21,-47.6 -24.3,-65z" class="st19"/>
   <polygon id="svg_61" fill="#C94949" points="141.9,189.2 137.8,196.6 147.9,241.4 141,250.4 133.9,243.9 133.2,196.9 129.6,191.1 134.7,183.6     " class="st20"/>
   <g id="svg_62">
    <path id="svg_63" fill="#FAA284" d="m141.5,173.4l0.3,11.2l-18.5,0.5l-0.4,-14.6c7.8,3.5 15.4,3.2 18.6,2.9z" class="st10"/>
    <path id="svg_64" fill="#EF8D72" d="m122.9,170.5l-0.3,-11.2l18.5,-0.5l0.4,14.6c-3.2,0.3 -10.8,0.6 -18.6,-2.9z" class="st21"/>
   </g>
   <path id="svg_65" fill="#25302C" d="m95.2,187.3c0,0 10.6,-5.8 23.4,-8.6c3.3,17.5 22.4,66.3 22.4,66.3c7.5,-26 5.9,-59.4 6,-66.9c5.9,0.9 13.1,1.9 18.9,4.7c0,0 7.9,35.3 4.4,115.6c0,0 -26.1,9.4 -68,1.4c0,0 3.9,-56.3 -1.5,-78.3c0,0 -3.9,-20.4 -5.6,-34.2z" class="st17"/>
   <path id="svg_66" fill="#F0F2F1" d="m141.5,174.5c0,0 -0.9,6.5 -6.8,9.1c0,0 -11,-1.9 -11.8,-9.1l-5.6,5.4c0,0 3.4,10.3 12,13.5l5.3,-8.2l7.3,6.7c0,0 6.7,-8 6.1,-13.3l-6.5,-4.1z" class="st11"/>
   <path id="svg_67" fill="#1B2320" d="m152.7,202.7l3.2,2.9c0,0 -8.7,34 -14.9,46.4c0,0 -17.9,-30.1 -23.6,-43.2l2.7,-4.3l-5.9,-1.8c0,0 -2.4,-12.4 -1.7,-22.4c1.9,-0.6 4,-1.1 6,-1.6c3.4,17.5 22.5,66.3 22.5,66.3c7.5,-26 5.9,-59.4 6,-66.9c1.7,0.3 3.6,0.7 5.5,1.2l4.1,19.7l-3.9,3.7z" class="st12"/>
   <path id="svg_68" fill="#131917" d="m103.7,255.7c0,0 6.9,-21.3 2.3,-30.1l-3.4,9l1.1,21.1z" class="st18"/>
   <g id="svg_69">
    <path id="svg_70" fill="#3B221D" d="m117.9,117.2c0,0 17.9,8.5 22.2,8c4.3,-0.5 18.1,-7.1 18.1,-7.1c1.8,8.3 -2.6,15.4 -2.6,15.4l-38.8,9l-6.5,1.7c-1.8,-7 -3.3,-14.2 -3.3,-18.3c7.9,-1.7 10.9,-8.7 10.9,-8.7z" class="st22"/>
    <path id="svg_71" fill="#502F26" d="m111.8,112.5c3.5,-14.1 27.5,-15 27.5,-15c12.6,-7.7 7.9,2.1 7.9,2.1c21.1,-7.5 11,11.4 11,11.4c7.8,-0.3 -0.1,7.1 -0.1,7.1s-13.8,6.6 -18.1,7.1c-4.3,0.5 -22.2,-8 -22.2,-8s-3,7 -11,8.8c0.2,-12.5 5,-13.5 5,-13.5z" class="st23"/>
    <path id="svg_72" fill="#FAA284" d="m111.9,139.2l2.9,2.5c0.6,-1.5 1.1,-3 1.5,-4.5c2.4,-8.9 1.6,-20 1.6,-20c20.4,7.9 37.8,2.2 37.8,2.2c-1,10.1 2.4,32.3 -5.4,43.8c-2.3,3.4 -5.2,6.3 -10.1,7c-21.3,3.3 -26.8,-17.5 -26.8,-17.5s-6.7,1.8 -8,-8.1c-1.2,-8.1 6.5,-5.4 6.5,-5.4z" class="st10"/>
    <path id="svg_73" fill="#EF8D72" d="m120.9,120.8c0,0 -1.7,9.4 -4.3,15.1c2,-8.5 1.3,-18.7 1.3,-18.7c20.4,7.9 37.8,2.2 37.8,2.2c-0.1,1.1 -0.1,2.4 -0.2,3.7c-7.9,1.1 -22.1,2.1 -34.6,-2.3z" class="st21"/>
    <path id="svg_74" fill="#502F26" d="m143.9,141.8c0,1.8 1.1,3.2 2.5,3.1c1.4,-0.1 2.4,-1.7 2.4,-3.5c0,-1.8 -1.1,-3.2 -2.5,-3.1c-1.4,0.1 -2.5,1.7 -2.4,3.5z" class="st23"/>
    <path id="svg_75" fill="#502F26" d="m125.3,141.2c0,1.8 1.1,3.2 2.5,3.1c1.4,-0.1 2.4,-1.7 2.4,-3.5c0,-1.8 -1.1,-3.2 -2.5,-3.1c-1.4,0.1 -2.5,1.7 -2.4,3.5z" class="st23"/>
    <g id="svg_76">
     <path id="svg_77" fill="#DB7C65" d="m137.3,152.2c4.1,1.7 6.3,-0.3 6.5,-2.2c0.1,-1.3 -0.6,-2.4 -1.8,-2.9c-2.5,-1 -4.3,-4.8 -4.3,-4.9l0,0c0,0.9 0.9,4.2 4.1,6.1c0.7,0.4 1.1,0.8 1.1,1.5c-0.2,1 -1.8,2.7 -5.6,2.4l0,0z" class="st24"/>
    </g>
    <g id="svg_78">
     <path id="svg_79" fill="#502F26" d="m152.2,132.3l0.2,-1.2c-0.3,0 -4.5,-1.2 -9.5,-0.8l0,1.9c4.1,-0.5 9.3,0.1 9.3,0.1z" class="st23"/>
    </g>
    <g id="svg_80">
     <path id="svg_81" fill="#502F26" d="m122,133c3.3,-1.3 9.5,-1.5 9.6,-1.5l-0.4,-1.8c-0.2,0 -5.8,0.2 -9.6,2.2l0.4,1.1z" class="st23"/>
    </g>
    <path id="svg_82" fill="#674434" d="m156.5,97.9c0,0 -8.9,8.7 -29.6,8.7c0,0 13.5,9.4 32,3.1c0,0.1 4.7,-11.1 -2.4,-11.8z" class="st25"/>
    <path id="svg_83" fill="#EF8D72" d="m115,150.2c1.8,5.3 8.6,18.3 23.1,17.5c7.9,-0.4 11.9,-5.6 14.5,-9.3c-0.6,1.7 -1.4,3.3 -2.3,4.7c-2.3,3.4 -5.2,6.3 -10.1,7c-21.3,3.3 -26.8,-17.5 -26.8,-17.5s-5.1,1.4 -7.4,-5.1c4,6.7 9,2.7 9,2.7z" class="st21"/>
    <g id="svg_84">
     <path id="svg_85" fill="#823321" d="m130.1,155c0,0 7.7,1.6 15,0c0,0 -1.3,6.6 -7.5,6.6c-5.9,0 -7.4,-5.3 -7.5,-6.6z" class="st26"/>
     <path id="svg_86" fill="#FFFFFF" d="m137.8,158.2c4.8,0 6.2,-2 6.8,-3.1c-5.6,1.1 -10.1,0.4 -14,0c0.3,1.2 2.7,3.1 7.2,3.1z" class="st2"/>
    </g>
   </g>
   <g id="svg_87">
    <polygon id="svg_88" fill="#EAD9CE" points="163.2,286.6 161.9,285.1 180.6,213.2 221.3,216.1 223,218.1   " class="st27"/>
    <polygon id="svg_89" fill="#D4B8A2" points="182.1,216.6 163.2,286.6 203.3,287.6 223,218.1   " class="st28"/>
   </g>
   <path id="svg_90" fill="#FAA284" d="m154.7,256.1l5.6,-4.6c0,0 5.1,-2.4 8,-3c2.9,-0.6 3.8,-2.5 3.8,-2.5l-1.2,5c0,0 15.3,-2.2 15.8,0c0,0 0.3,0.7 -0.2,2c0,0 2.4,0 1.8,2.7c0,0 0.1,0.2 -1.4,0.6c0,0 1.4,1.9 -1,3.2c0,0 0.7,1.6 -1.3,2.6c-2,0.9 -12.6,3.4 -12.6,3.4s-9.3,0.3 -12.9,-2.1l-4.4,-7.3z" class="st10"/>
   <path id="svg_91" fill="#F0F2F1" d="m160.4,250.7c-3.9,-0.9 -5.8,-0.9 -9.8,-2.1c-0.9,6.3 -1,6.8 -1.8,14.3c5.3,1 10.1,1.1 10.1,1.1c3.6,-6.4 1.5,-13.3 1.5,-13.3z" class="st11"/>
   <path id="svg_92" fill="#313A37" d="m152.3,247c-20.3,-2.2 -37.9,-8.5 -37.9,-8.5c-9.3,-37.3 -19.2,-51.2 -19.2,-51.2c-22.9,10.7 0.5,66.8 10.1,71.6c5.2,2.6 29.1,6 45.4,5.7c1.6,-6.2 2.7,-14.1 1.6,-17.6z" class="st29"/>
  </g>
  <g id="svg_93">
   <g id="svg_94">
    <path id="svg_95" fill="#545454" d="m504.5,463.8l3.5,-0.4l-35.3,-152.9l-74.1,0l-34.4,153l3.5,0.4l15.3,-58.5l50.8,0l1,59.3l3.5,0l0.7,-59.3l50,0l15.5,58.4zm-121,-61.8l22.1,-86.2l26.7,0l1.4,86.2l-50.2,0zm55.5,0l1,-86.2l26,0l22.5,86.2l-49.5,0z" class="st30"/>
    <rect id="svg_96" fill="#EDF1FF" height="220.8" width="145.2" class="st0" y="129.1" x="363.5"/>
    <g id="svg_97">
     <path id="svg_98" fill="#FFB12B" d="m471.4,312.9c3.3,-5.8 5.2,-12.4 5.2,-19.6c0,-10.8 -4.4,-20.6 -11.5,-27.7l-27.7,27.7l34,19.6z" class="st31"/>
     <path id="svg_99" fill="#594D41" d="m433.5,294l0,-37.9c-20.9,0 -37.9,17 -37.9,37.9c0,20.9 17,37.9 37.9,37.9c14,0 26.3,-7.6 32.8,-19l-32.8,-18.9z" class="st6"/>
     <path id="svg_100" fill="#FF992B" d="m466.3,260.9c-7.7,-7.7 -18.4,-12.5 -30.2,-12.5l0,42.8l30.2,-30.3z" class="st7"/>
    </g>
    <rect id="svg_101" fill="#9d41ad" height="20.6" width="168" class="st5" y="108.5" x="351.2"/>
    <rect id="svg_102" fill="#6a1b9a" height="5.7" width="168" class="st1" y="123.4" x="351.2"/>
    <g id="svg_103">
     <rect id="svg_104" fill="#594D41" height="79.8" width="2.2" class="st6" y="151.9" x="393.3"/>
     <rect id="svg_105" fill="#594D41" height="2.6" width="97.4" class="st6" y="229.1" x="393.3"/>
     <rect id="svg_106" fill="#FF992B" height="10.5" width="8.8" class="st7" y="218.5" x="401.2"/>
     <rect id="svg_107" fill="#FF992B" height="14.9" width="7.5" class="st7" y="214.2" x="414.4"/>
     <rect id="svg_108" fill="#FF992B" height="28.1" width="8.8" class="st7" y="201" x="426.6"/>
     <rect id="svg_109" fill="#FF992B" height="46.5" width="8.8" class="st7" y="182.6" x="438.5"/>
     <rect id="svg_110" fill="#FF992B" height="57" width="9.6" class="st7" y="172.1" x="450.8"/>
     <rect id="svg_111" fill="#FF992B" height="64.5" width="8.8" class="st7" y="164.6" x="463.5"/>
     <rect id="svg_112" fill="#FF992B" height="72.4" width="7.9" class="st7" y="156.7" x="477.1"/>
     <rect id="svg_113" fill="#9d41ad" height="3.9" width="96.1" class="st5" y="235.2" x="394.6"/>
     <rect id="svg_114" fill="#9d41ad" height="77.2" width="3.9" class="st5" y="151.9" x="385.4"/>
    </g>
    <rect id="svg_115" fill="#6a1b9a" height="9.6" width="41.2" class="st1" y="139.2" x="416.1"/>
   </g>
  </g>
  <g id="svg_116">
   <g id="svg_117">
    <path id="svg_118" fill="url(#SVGID_1_)" d="m499.6,191.5c0,0 -5.2,-47.8 6.5,-71.1c9.1,-18.1 19.9,-8.9 19.9,-8.9s10.4,-7.2 17.4,2.3c7,9.5 18.5,33.1 2.2,60.4c-16.1,27.4 -46,17.3 -46,17.3z" class="st32"/>
    <path id="svg_119" fill="#674535" d="m549.6,124.7c-1.5,-3.6 -3.3,-6.7 -4.9,-9.1c-15.7,7.7 -28.8,3.3 -35.5,-0.2c-1,1.4 -2.1,3 -3.1,5.1c-0.6,1.2 -1.2,2.6 -1.7,3.9c9.6,1.3 27.3,3 45.2,0.3z" class="st33"/>
   </g>
   <path id="svg_120" fill="#141A18" d="m502.4,183.1c0,0 -6.4,3.5 -17,44.2l11.8,1.3c0,0 11.2,-41.2 5.2,-45.5z" class="st34"/>
   <ellipse id="svg_121" fill="#010101" opacity="0.2" ry="7.6" rx="52.3" cy="474.5" cx="523.4" class="st35"/>
   <g id="svg_122">
    <path id="svg_123" fill="#F8A285" d="m555.5,326.6l-28.7,0c0.2,12.3 0.8,26.5 2.6,35.3c3.9,18.9 0.8,82.8 0.8,82.8l10.9,0.6c16.2,-59.6 7.3,-89.9 7.3,-89.9c3.4,-10.3 5.7,-20 7.1,-28.8z" class="st36"/>
   </g>
   <g id="svg_124">
    <path id="svg_125" fill="#26312D" d="m530.3,444.8c0,0 -8.1,29.2 -5.1,29.7l16.2,0c0,0 2.4,0.9 -0.2,-29.1l-5.9,-0.7l-5,0.1z" class="st37"/>
    <path id="svg_126" fill="#F8A285" d="m530.3,444.7l-2.7,22.2c1.4,0.3 8.9,-1.2 11.7,0.9c0,0 1.7,-9.6 1.9,-22.5l-5,-7.3l-5.9,6.7z" class="st36"/>
   </g>
   <g id="svg_127">
    <path id="svg_128" fill="#F8A285" d="m524.2,326.6l-27.1,0c3.4,16.9 6.9,33.3 8.4,38.5c3.5,11.9 6.8,79.6 6.8,79.6l11.3,0c0.2,-11.3 1.6,-24.2 2.6,-31.5c5.7,-42 -3.2,-59.3 -3.2,-59.3c1.4,-8.9 1.6,-18.5 1.2,-27.3z" class="st36"/>
   </g>
   <path id="svg_129" fill="#EF8D73" d="m555.5,326.6l-28.7,0c0.1,8.5 0.5,18.3 1.3,26.3c6.6,-0.2 13.9,-0.9 21.8,-2.4c2.6,-8.5 4.4,-16.3 5.6,-23.9z" class="st38"/>
   <path id="svg_130" fill="#EF8D73" d="m524.2,326.6l-27.1,0c1.8,8.9 3.6,17.5 5.1,24.5c5.5,1 12.5,1.9 20.9,1.9c1.3,-8.6 1.5,-17.9 1.1,-26.4z" class="st38"/>
   <g id="svg_131">
    <path id="svg_132" fill="#26312D" d="m523.6,444.7c-3.7,10.6 -13.2,22.2 -13.2,22.2l-8.3,0.9l-8.3,2c0,0 -2.1,2 -0.3,5.2l21.1,0l7.2,-18l-0.5,18l2.2,0l4.5,-22.2c0.1,-0.1 -0.4,-5.4 -4.4,-8.1z" class="st37"/>
    <path id="svg_133" fill="#F8A285" d="m523.6,444.7l-5.3,-4.8l-6,4.8c0,0 -6.4,20.5 -10.2,23.1l7.6,-0.1c0,0 10.2,-12.5 13.9,-23z" class="st36"/>
   </g>
   <path id="svg_134" fill="#26312D" d="m501.9,253c0,0 -21.3,29.6 -3.1,93c0,0 13.6,5.4 55,0c0,0 18.7,-64 -13.5,-93.8l-38.4,0.8z" class="st37"/>
   <g id="svg_135">
    <path id="svg_136" fill="#D5D6D5" d="m515.2,227.5l18.6,-33.6l7,-13.6c-11,-3.2 -20.6,-2.1 -27.4,-0.3l-2,13.6c-0.1,0 -0.1,22.1 3.8,33.9z" class="st39"/>
    <g id="svg_137">
     <g id="svg_138">
      <path id="svg_139" fill="#F8A285" d="m520.3,174.3l0,11.1l13.5,0.1l0.1,-14.4c-5.7,3.6 -11.3,3.5 -13.6,3.2z" class="st36"/>
      <path id="svg_140" fill="#EF8D73" d="m533.8,171.1l0,-11.1l-13.5,-0.1l-0.1,14.4c2.4,0.3 8,0.4 13.6,-3.2z" class="st38"/>
     </g>
     <path id="svg_141" fill="#26312D" d="m541,180.3l-8.6,13.2l-17.1,30.4c-3.9,-11.8 -2.4,-30.2 -2.4,-30.2l0.5,-13.7c-6.8,1.8 -11.1,3.2 -11.1,3.2l-1.8,11.9c-7,9 -9.1,14.2 -9.2,16.8c-0.1,5.9 6.5,11.1 6.5,11.1l4,30.1c23.3,9.1 39.7,0.5 39.7,0.5c2.6,-17.6 10.9,-43.3 10.9,-43.3l0,-25.3c-3.5,-2.1 -7.8,-3.6 -11.4,-4.7z" class="st37"/>
     <path id="svg_142" fill="#F1F3F2" d="m520.2,174.9c0,0 -0.2,6.4 4.2,9c0,0 8.9,-1.9 9.5,-9.1l4.9,5c0,0 -5.6,10.6 -12,13.8l-2.6,-8.1l-6.9,6.8c0,0 -2.8,-7.9 -2.3,-13.1l5.2,-4.3z" class="st40"/>
     <path id="svg_143" fill="#1C2421" d="m507.3,200l-3.1,3.4c0,0 4.1,18.3 10.8,28c0,0 18.8,-17.1 23.9,-26.1l-4.4,-4.3l6.4,-0.1l6.3,-18.4c-2.1,-0.9 -4.2,-1.7 -6.3,-2.2l-8.5,13.2l-17,30.4c-3.9,-11.8 -2.4,-30.2 -2.4,-30.2l0.5,-13.7c-2,0.5 -3.8,0.9 -5.3,1.5l-4.8,17.4l3.9,1.1z" class="st41"/>
    </g>
   </g>
   <polygon id="svg_144" fill="#141A18" points="499,266.7 512.9,276.4 518.5,269.4 523.5,276.4 543.9,264.3 523.7,280.9 518.7,273.9 512.3,281.5     " class="st34"/>
   <g id="svg_145">
    <path id="svg_146" fill="#F8A285" d="m547.9,140.7l-0.4,0.1l0,0c0,0 -2,14 -6.7,-2.9c-11.3,-8.6 -14.8,-21.6 -14.8,-21.6c-4.3,9.5 -14.7,22.7 -20.1,24.8c-0.2,3.2 0.2,8.1 0.6,12.4c0.8,8.5 5.2,14.7 13.5,16.7c20.1,4.7 25.7,-14.3 25.7,-14.3s7.5,0.2 8.4,-9.6c0.8,-8.1 -6.2,-5.6 -6.2,-5.6z" class="st36"/>
    <path id="svg_147" fill="#EF8D73" d="m526.5,123.2c0,0 5.4,10.5 14.3,14.6c-11.3,-8.7 -14.8,-21.6 -14.8,-21.6c-3.8,8.4 -12.5,19.8 -18.1,23.7c3.9,-1.4 10.6,-5.6 18.6,-16.7z" class="st38"/>
    <path id="svg_148" fill="#EF8D73" d="m544,153.8c0,0 -5.4,14.1 -16.7,15.6c-6.9,0.9 -12.7,-2 -16.3,-4.4c2.2,2.5 5.2,4.3 9,5.2c20.1,4.7 25.7,-14.3 25.7,-14.3s6,0.1 7.9,-6.7c-4.9,6.9 -9.6,4.6 -9.6,4.6z" class="st38"/>
    <g id="svg_149" opacity="0.9" class="st42">
     <ellipse id="svg_150" fill="#EA7460" opacity="0" ry="8.1" rx="8.1" cy="154.3" cx="513.3" class="st43" transform="matrix(5.532373e-03 -1 1 5.532373e-03 356.0976 666.7697)"/>
     <ellipse id="svg_151" fill="#EA7460" opacity="0.09091" ry="7.4" rx="7.4" cy="154.3" cx="513.3" class="st44" transform="matrix(5.530125e-03 -1 1 5.530125e-03 356.0988 666.7701)"/>
     <ellipse id="svg_152" fill="#EA7460" opacity="0.1818" ry="6.7" rx="6.7" cy="154.3" cx="513.3" class="st45" transform="matrix(5.527306e-03 -1 1 5.527306e-03 356.1002 666.7705)"/>
     <ellipse id="svg_153" fill="#EA7460" opacity="0.2727" ry="6" rx="6" cy="154.3" cx="513.3" class="st46" transform="matrix(5.523814e-03 -1 1 5.523814e-03 356.102 666.7711)"/>
     <ellipse id="svg_154" fill="#EA7460" opacity="0.3636" ry="5.3" rx="5.3" cy="154.3" cx="513.3" class="st47" transform="matrix(5.519375e-03 -1 1 5.519375e-03 356.1043 666.7717)"/>
     <ellipse id="svg_155" fill="#EA7460" opacity="0.4545" ry="4.6" rx="4.6" cy="154.3" cx="513.3" class="st48" transform="matrix(5.513546e-03 -1 1 5.513546e-03 356.1073 666.7726)"/>
     <ellipse id="svg_156" fill="#EA7460" opacity="0.5455" ry="3.8" rx="3.8" cy="154.3" cx="513.3" class="st49" transform="matrix(5.505551e-03 -1 1 5.505551e-03 356.1114 666.7739)"/>
     <ellipse id="svg_157" fill="#EA7460" opacity="0.6364" ry="3.1" rx="3.1" cy="154.3" cx="513.3" class="st50" transform="matrix(5.493905e-03 -1 1 5.493905e-03 356.1174 666.7757)"/>
     <ellipse id="svg_158" fill="#EA7460" opacity="0.7273" ry="2.4" rx="2.4" cy="154.3" cx="513.3" class="st51" transform="matrix(5.475373e-03 -1 1 5.475373e-03 356.1269 666.7786)"/>
     <ellipse id="svg_159" fill="#EA7460" opacity="0.8182" ry="1.7" rx="1.7" cy="154.3" cx="513.3" class="st52" transform="matrix(5.441279e-03 -1 1 5.441279e-03 356.1443 666.784)"/>
     <ellipse id="svg_160" fill="#EA7460" opacity="0.9091" ry="1" rx="1" cy="154.3" cx="513.3" class="st53" transform="matrix(5.357835e-03 -1 1 5.357835e-03 356.1871 666.7971)"/>
     <ellipse id="svg_161" fill="#EA7460" ry="0.3" rx="0.3" cy="154.3" cx="513.3" class="st54" transform="matrix(5.980068e-03 -1 1 5.980068e-03 355.8683 666.6992)"/>
    </g>
    <g id="svg_162" opacity="0.9" class="st42">
     <ellipse id="svg_163" fill="#EA7460" opacity="0" ry="9.4" rx="9.4" cy="154" cx="534.7" class="st43" transform="matrix(5.511821e-03 -1 1 5.511821e-03 377.7625 687.8901)"/>
     <ellipse id="svg_164" fill="#EA7460" opacity="0.09091" ry="8.6" rx="8.6" cy="154" cx="534.7" class="st44" transform="matrix(5.509658e-03 -1 1 5.509658e-03 377.7636 687.8905)"/>
     <ellipse id="svg_165" fill="#EA7460" opacity="0.1818" ry="7.7" rx="7.7" cy="154" cx="534.7" class="st45" transform="matrix(5.509762e-03 -1 1 5.509762e-03 377.7635 687.8905)"/>
     <ellipse id="svg_166" fill="#EA7460" opacity="0.2727" ry="6.9" rx="6.9" cy="154" cx="534.7" class="st46" transform="matrix(5.509892e-03 -1 1 5.509892e-03 377.7634 687.8905)"/>
     <ellipse id="svg_167" fill="#EA7460" opacity="0.3636" ry="6.1" rx="6.1" cy="154" cx="534.7" class="st47" transform="matrix(5.510056e-03 -1 1 5.510056e-03 377.7633 687.8905)"/>
     <ellipse id="svg_168" fill="#EA7460" opacity="0.4545" ry="5.3" rx="5.3" cy="154" cx="534.7" class="st48" transform="matrix(5.510273e-03 -1 1 5.510273e-03 377.7632 687.8905)"/>
     <ellipse id="svg_169" fill="#EA7460" opacity="0.5455" ry="4.4" rx="4.4" cy="154" cx="534.7" class="st49" transform="matrix(5.510570e-03 -1 1 5.510570e-03 377.763 687.8904)"/>
     <ellipse id="svg_170" fill="#EA7460" opacity="0.6364" ry="3.6" rx="3.6" cy="154" cx="534.7" class="st50" transform="matrix(5.511002e-03 -1 1 5.511002e-03 377.7628 687.8904)"/>
     <ellipse id="svg_171" fill="#EA7460" opacity="0.7273" ry="2.8" rx="2.8" cy="154" cx="534.7" class="st51" transform="matrix(5.511689e-03 -1 1 5.511689e-03 377.7624 687.8903)"/>
     <ellipse id="svg_172" fill="#EA7460" opacity="0.8182" ry="2" rx="2" cy="154" cx="534.7" class="st52" transform="matrix(5.512955e-03 -1 1 5.512955e-03 377.7617 687.8901)"/>
     <ellipse id="svg_173" fill="#EA7460" opacity="0.9091" ry="1.1" rx="1.1" cy="154" cx="534.7" class="st53" transform="matrix(5.516051e-03 -1 1 5.516051e-03 377.76 687.8896)"/>
     <ellipse id="svg_174" fill="#EA7460" ry="0.3" rx="0.3" cy="154" cx="534.7" class="st54" transform="matrix(6.173598e-03 -1 1 6.173598e-03 377.409 687.7864)"/>
    </g>
    <g id="svg_175">
     <path id="svg_176" fill="#56372F" d="m517.5,158.2c0,0 5.2,1.6 13.5,0c0,0 -2,6.7 -7.7,6.3c-5,-0.5 -5.8,-6.3 -5.8,-6.3z" class="st55"/>
     <path id="svg_177" fill="#FFFFFF" d="m517.7,158.5c0,0 5.4,1.8 12.9,0c0,0 -1.3,2.8 -7.2,2.6c-5.2,-0.2 -5.7,-2.6 -5.7,-2.6z" class="st2"/>
    </g>
    <path id="svg_178" fill="#503027" d="m516.9,138.1c0,0 -3.9,-1.5 -8.2,1.6c0,0 0,-0.5 0.8,-1.4c0.9,-0.9 3.5,-2.3 6.3,-1.6c0,-0.1 1.7,0.9 1.1,1.4z" class="st56"/>
    <path id="svg_179" fill="#503027" d="m527.5,139.4c0,0 4.5,-1.9 9.5,1.5c0,0 0,-0.6 -1,-1.6c-1,-1 -4.1,-2.4 -7.3,-1.6c0.1,-0.1 -1.9,1.1 -1.2,1.7z" class="st56"/>
    <g id="svg_180">
     <path id="svg_181" fill="#D37660" d="m523.7,155.7c-4,1.8 -6.3,0 -6.5,-1.9c-0.2,-1.2 0.5,-2.4 1.7,-2.9c2.4,-1.1 4,-4.9 4.1,-5l0,0c0,0.9 -0.7,4.2 -3.8,6.1c-0.7,0.4 -1.1,0.9 -1,1.5c0.2,1 1.8,2.6 5.5,2.2l0,0z" class="st57"/>
    </g>
    <path id="svg_182" fill="#503027" d="m532.8,142.7c0,0 -2.5,-0.1 -2.8,-1c0,0 -0.4,1.3 1.1,1.8c-0.5,0.6 -0.9,1.4 -0.9,2.3c-0.1,1.8 0.9,3.3 2.3,3.4c1.3,0.1 2.5,-1.3 2.6,-3.1c0.1,-1.8 -1,-3.3 -2.3,-3.4z" class="st56"/>
    <path id="svg_183" fill="#503027" d="m514.5,142.6c0,0 -2.5,-0.1 -2.8,-1c0,0 -0.4,1.3 1.1,1.8c-0.5,0.6 -0.9,1.4 -0.9,2.3c-0.1,1.8 0.9,3.3 2.3,3.3c1.3,0.1 2.5,-1.3 2.6,-3.1c0,-1.7 -1,-3.2 -2.3,-3.3z" class="st56"/>
   </g>
   <g id="svg_184">
    <polygon id="svg_185" fill="#A7BBD1" points="455.5,213.2 456.5,211.7 495.2,211.3 509.3,260.1 508.1,261.4 493.3,214.3   " class="st58"/>
    <polygon id="svg_186" fill="#CCDAED" points="455.5,213.1 494.3,213.1 508.1,261.4 469.3,261.4   " class="st59"/>
    <path id="svg_187" fill="#F8A285" d="m474.2,241.3l-0.2,0c0,0 -9.1,-0.2 -10,-0.2l3.1,-0.7c0,0 6.8,0.9 7.2,-0.5l0,-0.2c0,-0.7 -1,-1.3 -1.7,-1.4c0,0 -0.1,0 -0.1,0s-4.9,-1 -5.9,-0.9c-1,0 -4.6,0.9 -4.6,0.9c-0.7,0 -1,0.7 -1,1.5l0,0.2c0,0.4 -0.1,0.7 0.1,1c0,0 -0.1,0 -0.1,0c0.1,0.2 -0.1,0.7 -0.1,0.7l0.2,0c-0.4,0.2 -0.5,0.5 -0.5,1l0,0.2c0,0.6 0.2,1.2 0.7,1.5c0,0 -0.1,0 -0.1,0c0.5,0.4 0.2,0.7 0.2,0.7l0,0c-0.1,0.1 -0.3,0.3 -0.3,0.4c-0.2,0.6 0,1.2 0.4,1.6c0.2,0.2 0.5,0.3 0.8,0.4c0.6,0.3 0.7,0.7 0.6,1c0,0.1 -0.1,0.2 -0.1,0.3c0,0.4 0.2,0.8 0.5,1c0.4,0.4 1,0.5 1.6,0.6c0.4,0 0.8,0 1.2,0c1.5,0 3,0 4.6,0c0.4,0 1,0 1.4,0c0.6,0 1.6,-0.8 1.6,-1.4l0,-0.2c0,-0.7 -1.3,-1 -1.8,-1l1.1,0c0.7,0 2.1,-0.9 2.1,-1.7l0,-0.2c0,-0.8 -1.5,-1.2 -2.2,-1.2l1.7,0c0.8,0 2.3,-0.5 2.3,-1.3l0,-0.5c-0.4,-1.2 -1.8,-1.6 -2.7,-1.6z" class="st36"/>
    <polygon id="svg_188" fill="#EAF2FB" points="462.5,237.2 458.4,223.1 468.9,213.1 490.8,213.1   " class="st60"/>
   </g>
   <g id="svg_189">
    <path id="svg_190" fill="#F8A285" d="m546.7,252.9c0,0 -7.3,2.6 -10.6,7.1c0,0 -1.4,2.1 0.1,2.7c1.5,0.7 0.3,2.7 1.9,3.4c1.6,0.8 0.9,2.3 3.2,2.7c0,0 0.4,1.6 2.1,1.6c1.6,0 5.4,0.4 5.8,-0.4c0.4,-0.8 2.7,-3.8 2.5,-4.2c-0.1,-0.4 -0.5,-1 -1.8,-0.7c0,0 1.1,-0.7 2.1,-2c1,-1.2 1.6,-3.8 1.6,-3.8l0.4,-7l-7.3,0.6z" class="st36"/>
    <g id="svg_191">
     <path id="svg_192" fill="#F1F3F2" d="m551.9,246.6l-5.3,5.2c0,0 -0.2,6.3 7.6,8.7l4.1,-3.7l-6.4,-10.2z" class="st40"/>
     <path id="svg_193" fill="#26312D" d="m552.4,185c0,0 33.1,34.3 32,44.8c0,0 0,7 -26,27.9c0,0 -7.3,0.1 -9.3,-9.3l19.1,-20.8l-17.8,-16.4c0,0 -4.8,-16.9 2,-26.2z" class="st37"/>
    </g>
   </g>
  </g>
 </g>
</svg>